<svg xmlns="http://www.w3.org/2000/svg" width="235.055" height="162.958" viewBox="0 0 235.055 162.958"><g transform="translate(0 -78.521)"><g transform="translate(147.897 182.221)"><path d="M351.78,304.4a29.629,29.629,0,1,0,29.629,29.629A29.662,29.662,0,0,0,351.78,304.4Zm0,44.443a14.814,14.814,0,1,1,14.814-14.814A14.83,14.83,0,0,1,351.78,348.846Z" transform="translate(-322.151 -304.403)"/></g><g transform="translate(46.665 182.221)"><path d="M131.276,304.4A29.629,29.629,0,1,0,160.9,334.032,29.662,29.662,0,0,0,131.276,304.4Zm0,44.443a14.814,14.814,0,1,1,14.814-14.814A14.83,14.83,0,0,1,131.276,348.846Z" transform="translate(-101.647 -304.403)"/></g><g transform="translate(151.847 93.335)"><g transform="translate(0 0)"><path d="M376.387,114.869a7.411,7.411,0,0,0-6.62-4.079H330.756V125.6H365.2l20.17,40.117,13.239-6.657Z" transform="translate(-330.756 -110.79)"/></g></g><g transform="translate(99.256 204.69)"><rect width="56.048" height="14.814"/></g><g transform="translate(20.987 204.69)"><path d="M78.8,353.345H53.122a7.407,7.407,0,0,0,0,14.814H78.8a7.407,7.407,0,1,0,0-14.814Z" transform="translate(-45.715 -353.345)"/></g><g transform="translate(20.987 78.521)"><path d="M258.227,159.407l-14.57-18.765a7.4,7.4,0,0,0-5.849-2.864H183.982V85.928a7.406,7.406,0,0,0-7.407-7.407H53.122a7.407,7.407,0,1,0,0,14.814H169.168v51.85a7.406,7.406,0,0,0,7.407,7.407h57.606l10.787,13.9v38.2H224.474a7.407,7.407,0,1,0,0,14.814h27.9a7.407,7.407,0,0,0,7.407-7.407V163.95A7.418,7.418,0,0,0,258.227,159.407Z" transform="translate(-45.715 -78.521)"/></g><g transform="translate(12.098 167.16)"><path d="M67.833,271.6H33.76a7.407,7.407,0,0,0,0,14.814H67.833a7.407,7.407,0,0,0,0-14.814Z" transform="translate(-26.353 -271.597)"/></g><g transform="translate(0 138.025)"><path d="M70.615,208.134H7.407a7.407,7.407,0,0,0,0,14.814H70.615a7.407,7.407,0,0,0,0-14.814Z" transform="translate(0 -208.134)"/></g><g transform="translate(12.098 108.89)"><g transform="translate(0 0)"><path d="M96.968,144.672H33.76a7.407,7.407,0,1,0,0,14.814H96.968a7.407,7.407,0,1,0,0-14.814Z" transform="translate(-26.353 -144.672)"/></g></g></g></svg>